<svg xmlns="http://www.w3.org/2000/svg" width="177.429" height="42" viewBox="0 0 177.429 42">
  <g id="Logo" transform="translate(2338.61 58.879)">
    <g id="Group_18731" data-name="Group 18731" transform="translate(-2337.663 -27.082)">
      <path id="Path_17514" data-name="Path 17514" d="M-2329.153,122.73h-4.127v9.431h2.11V129.3h2.018a3.26,3.26,0,0,0,3.26-3.26v-.047A3.26,3.26,0,0,0-2329.153,122.73Zm1.1,3.233a1.423,1.423,0,0,1-1.423,1.424h-1.637a.093.093,0,0,1-.093-.093v-2.682a.093.093,0,0,1,.093-.093h1.761a1.3,1.3,0,0,1,1.3,1.3Z" transform="translate(2333.28 -122.258)" fill="#bdbec0"/>
      <path id="Path_17515" data-name="Path 17515" d="M-2245.715,131.6l-2.023-2.987s-.024-.027-.022-.033a.137.137,0,0,1,.028-.013,3.258,3.258,0,0,0,1.87-2.946v-.047a3.26,3.26,0,0,0-3.26-3.26h-4.482v9.431h2.11v-2.862h1.693l1.758,2.718Zm-5.813-4.721v-2.682a.093.093,0,0,1,.093-.093h1.762c.718,0,1.655.582,1.655,1.3v.145c0,.786-.993,1.424-1.779,1.424h-1.637A.093.093,0,0,1-2251.529,126.876Z" transform="translate(2267.762 -121.915)" fill="#bdbec0"/>
      <path id="Path_17516" data-name="Path 17516" d="M-2168.522,120.081a5.027,5.027,0,0,0-5.027,5.027,5.027,5.027,0,0,0,5.027,5.027,5.027,5.027,0,0,0,5.028-5.027A5.027,5.027,0,0,0-2168.522,120.081Zm-.035,7.859a2.782,2.782,0,0,1-2.782-2.782,2.782,2.782,0,0,1,2.782-2.782,2.782,2.782,0,0,1,2.782,2.782A2.782,2.782,0,0,1-2168.557,127.94Z" transform="translate(2201.929 -120.081)" fill="#bdbec0"/>
      <path id="Path_17517" data-name="Path 17517" d="M-1680.43,120.918a5.027,5.027,0,0,0-5.027,5.027,5.027,5.027,0,0,0,5.027,5.027,5.027,5.027,0,0,0,5.027-5.027A5.027,5.027,0,0,0-1680.43,120.918Zm-.035,7.859a2.782,2.782,0,0,1-2.782-2.782,2.782,2.782,0,0,1,2.782-2.782,2.782,2.782,0,0,1,2.782,2.782A2.782,2.782,0,0,1-1680.465,128.777Z" transform="translate(1800.56 -120.769)" fill="#bdbec0"/>
      <path id="Path_17518" data-name="Path 17518" d="M-2071.48,124.453v-1.785h-6.988v.006h-.018v9.245h1.986v-3.56h4.392v-1.948h-4.392v-1.958Z" transform="translate(2123.756 -122.208)" fill="#bdbec0"/>
      <path id="Path_17519" data-name="Path 17519" d="M-1986.363,124.453v-1.785h-6.988v.006h-.018v9.245h7v-1.785h-5.011v-1.94h4.408v-1.948h-4.408v-1.793Z" transform="translate(2053.763 -122.208)" fill="#bdbec0"/>
      <path id="Path_17520" data-name="Path 17520" d="M-1901.622,131.58a4.181,4.181,0,0,1-1.414,0,4.991,4.991,0,0,1-2.492-1.037c-.154-.131-.424-.41-.424-.41l-.068-.072,1.088-1.372.07.031s.289.142.466.256a3.9,3.9,0,0,0,2.5.682.9.9,0,0,0,.938-.661c.117-.5-.218-.778-.631-.926-.72-.256-1.46-.458-2.184-.705a2.618,2.618,0,0,1-2.083-2.876,2.913,2.913,0,0,1,2.839-2.448,4.665,4.665,0,0,1,3.46.832,1.915,1.915,0,0,1,.4.4l-1.246,1.373a6.125,6.125,0,0,1-.855-.472,2.237,2.237,0,0,0-1.7-.331c-.385.074-.747.222-.776.71a.78.78,0,0,0,.618.85c.674.213,1.354.407,2.029.617,1.885.588,2.266,1.493,2.275,2.741.01,1.368-.9,2.312-2.46,2.715-.053.014-.154.052-.154.052A1.783,1.783,0,0,1-1901.622,131.58Z" transform="translate(1981.935 -121.66)" fill="#bdbec0"/>
      <path id="Path_17521" data-name="Path 17521" d="M-1820.691,131.58a4.183,4.183,0,0,1-1.415,0,4.992,4.992,0,0,1-2.492-1.037c-.155-.131-.425-.41-.425-.41l-.068-.072,1.087-1.372.07.031s.29.142.466.256a3.894,3.894,0,0,0,2.5.682.9.9,0,0,0,.938-.661c.116-.5-.218-.778-.631-.926-.72-.256-1.46-.458-2.185-.705a2.618,2.618,0,0,1-2.083-2.876,2.912,2.912,0,0,1,2.839-2.448,4.665,4.665,0,0,1,3.46.832,1.919,1.919,0,0,1,.4.4l-1.246,1.373a6.1,6.1,0,0,1-.856-.472,2.237,2.237,0,0,0-1.7-.331c-.384.074-.747.222-.776.71a.78.78,0,0,0,.619.85c.674.213,1.354.407,2.029.617,1.885.588,2.266,1.493,2.275,2.741.01,1.368-.9,2.312-2.459,2.715-.054.014-.155.052-.155.052A1.764,1.764,0,0,1-1820.691,131.58Z" transform="translate(1915.384 -121.66)" fill="#bdbec0"/>
      <rect id="Rectangle_4844" data-name="Rectangle 4844" width="1.934" height="9.375" transform="translate(106.076 0.476)" fill="#bdbec0"/>
      <path id="Path_17522" data-name="Path 17522" d="M-1400.933,130.038h-4.7v-7.3h-1.934v9.242h1.934v-.01h4.7Z" transform="translate(1572.045 -122.267)" fill="#bdbec0"/>
      <path id="Path_17523" data-name="Path 17523" d="M-1497.5,121.94v-.021h-1.934v.009l-2.3,5.462h-.018v.044l-1.627,3.871h1.952l.892-2.116h4.016l.878,2.083h1.953Zm-2.272,5.45,1.229-2.914h.042l1.229,2.914Z" transform="translate(1650.831 -121.592)" fill="#bdbec0"/>
      <path id="Path_17524" data-name="Path 17524" d="M-1582.755,121.9h-1.975v5.509l-4.207-5.488V121.9h-1.934v9.375h1.934v-5.82l4.207,5.794v.026h.019l.006.008v-.008h1.95Z" transform="translate(1722.779 -121.577)" fill="#bdbec0"/>
      <path id="Path_17525" data-name="Path 17525" d="M-1367.62,121.66h-2.284v.526h.793v2.15h.7v-2.15h.793Z" transform="translate(1541.073 -121.379)" fill="#bdbec0"/>
      <g id="Group_18730" data-name="Group 18730" transform="translate(173.769 0.277)">
        <path id="Path_17526" data-name="Path 17526" d="M-1353.406,121.639h.843v2.682h-.546v-1.814c0-.052,0-.125,0-.219s0-.167,0-.217l-.531,2.251h-.57l-.527-2.251c0,.051,0,.123,0,.217s0,.167,0,.219v1.814h-.546v-2.682h.853l.51,2.109Z" transform="translate(1355.276 -121.639)" fill="#bdbec0"/>
      </g>
    </g>
    <g id="Group_18732" data-name="Group 18732" transform="translate(-2338.61 -58.879)">
      <path id="Path_17527" data-name="Path 17527" d="M-2232.789-16.1a10.058,10.058,0,0,0-1.568-3.105,7.44,7.44,0,0,0-2.563-2.08,7.465,7.465,0,0,0-3.528-.784,7.629,7.629,0,0,0-3.527.784,8,8,0,0,0-2.593,2.11,9.9,9.9,0,0,0-1.568,3.075,13.462,13.462,0,0,0-.542,3.8v.332c.271,1.387.542,2.8.814,4.221A8.871,8.871,0,0,0-2246.6-5.4a7.892,7.892,0,0,0,2.563,2.11,7.444,7.444,0,0,0,3.528.754,8,8,0,0,0,3.527-.754,7.533,7.533,0,0,0,2.563-2.11A8.893,8.893,0,0,0-2232.85-8.5a13.46,13.46,0,0,0,0-7.567Zm-1.959,6.693a8.651,8.651,0,0,1-1.116,2.532,6.043,6.043,0,0,1-1.9,1.809,5.527,5.527,0,0,1-5.306,0,5.73,5.73,0,0,1-1.9-1.809,7.927,7.927,0,0,1-1.115-2.532,11.085,11.085,0,0,1,0-5.789,8.656,8.656,0,0,1,1.115-2.532,5.554,5.554,0,0,1,1.9-1.749,5.528,5.528,0,0,1,5.306,0,5.729,5.729,0,0,1,1.9,1.809,7.927,7.927,0,0,1,1.116,2.533,11.1,11.1,0,0,1,0,5.789Z" transform="translate(2264.657 28.61)" fill="#54565b"/>
      <path id="Path_17528" data-name="Path 17528" d="M-2128.94-33.343V-36.87H-2129a5.785,5.785,0,0,1-.995,1.658,6.709,6.709,0,0,1-1.477,1.3,9.781,9.781,0,0,1-1.809.814,6.729,6.729,0,0,1-1.9.271,7.2,7.2,0,0,1-3.376-.754,7.171,7.171,0,0,1-2.442-2.11,9.134,9.134,0,0,1-1.448-3.105,15.081,15.081,0,0,1,0-7.507A9.134,9.134,0,0,1-2141-49.412a7.354,7.354,0,0,1,7.778-2.653,6.177,6.177,0,0,1,3.166,2.05,5.509,5.509,0,0,1,.964,1.749h.061V-58.879h2.11v25.6h-2.02Zm-11.638-6.392a8.385,8.385,0,0,0,1,2.533,5.9,5.9,0,0,0,1.748,1.809,4.663,4.663,0,0,0,2.593.693,5.489,5.489,0,0,0,2.834-.693,5.728,5.728,0,0,0,1.9-1.809,7.712,7.712,0,0,0,1.025-2.533,12.694,12.694,0,0,0,0-5.638,7.713,7.713,0,0,0-1.025-2.532,5.636,5.636,0,0,0-1.869-1.809,5.488,5.488,0,0,0-2.834-.693,4.659,4.659,0,0,0-2.592.693,5.283,5.283,0,0,0-1.749,1.809,7.677,7.677,0,0,0-.995,2.532,13.171,13.171,0,0,0-.031,5.638" transform="translate(2177.691 58.879)" fill="#54565b"/>
      <path id="Path_17529" data-name="Path 17529" d="M-2031.328-22.567c-4.342,0-7.176,2.442-7.326,5.849h1.839c.211-2.653,2.02-4.251,5.547-4.251s4.914,1.236,4.914,4.281c0,1.658-.542,1.99-2.08,2.352a30.224,30.224,0,0,1-3.316.452h-.211a14.137,14.137,0,0,0-4.734.995,4.752,4.752,0,0,0-2.954,4.613c0,3.286,2.351,5.336,6.12,5.336a9.056,9.056,0,0,0,6.9-3.166l.332-.332v.754c0,1.387.482,2.593,1.719,2.8v-14.11c0-3.648-2.261-5.547-6.784-5.547m5,12v.241a7.034,7.034,0,0,1-.362,1.9,6,6,0,0,1-5,3.8,11.668,11.668,0,0,1-1.447.09c-2.714,0-4.522-1.477-4.522-3.769a3.535,3.535,0,0,1,.392-1.658l.061-.121.06-.09a2.71,2.71,0,0,1,.453-.573l.09-.09.121-.12a5.516,5.516,0,0,1,.664-.513,11.342,11.342,0,0,1,4.522-1.206,16.527,16.527,0,0,0,4.7-.784l.241-.09v1.929h0v.543h0v.452" transform="translate(2092.771 29.019)" fill="#54565b"/>
      <path id="Path_17530" data-name="Path 17530" d="M-1834.964-46.375v-5.547h-3.588v20.109a16.235,16.235,0,0,0,.211,2.08,2.841,2.841,0,0,0,2.111,2.321,7.617,7.617,0,0,0,2.472.3,9.129,9.129,0,0,0,1.3-.06l1.116-.121v-2.834l-.634.09h-.844a2.718,2.718,0,0,1-1.115-.181,1.537,1.537,0,0,1-.664-.573,2.258,2.258,0,0,1-.271-.9,6.807,6.807,0,0,1,0-1.115V-43.36h3.618v-2.834h-3.708Z" transform="translate(1927.401 53.158)" fill="#54565b"/>
      <path id="Path_17531" data-name="Path 17531" d="M-1712.534-19.17a8.283,8.283,0,0,0-2.743-2.472,7.727,7.727,0,0,0-3.738-.935,7.7,7.7,0,0,0-3.558.814,8.128,8.128,0,0,0-2.683,2.171,9.8,9.8,0,0,0-1.718,3.166,12.7,12.7,0,0,0-.6,3.829,14.066,14.066,0,0,0,.573,4.04,8.977,8.977,0,0,0,1.658,3.135,7.457,7.457,0,0,0,2.714,2.02,8.663,8.663,0,0,0,3.708.724,9.312,9.312,0,0,0,2.743-.422,8.147,8.147,0,0,0,2.382-1.236,7.7,7.7,0,0,0,1.809-2.02A7.343,7.343,0,0,0-1711-8.829h-3.377A4.767,4.767,0,0,1-1716-6.477a4.675,4.675,0,0,1-2.924.844,4.852,4.852,0,0,1-2.261-.482,4.639,4.639,0,0,1-1.568-1.3,5.581,5.581,0,0,1-.934-1.9,8.171,8.171,0,0,1-.3-2.261v-.211h13.356a10.9,10.9,0,0,0-.271-3.949,10.107,10.107,0,0,0-1.6-3.527m-1.96,5.125h-9.527v-.211a6.1,6.1,0,0,1,.422-2.08,5.763,5.763,0,0,1,1.025-1.688,4.293,4.293,0,0,1,1.537-1.116,5.015,5.015,0,0,1,1.99-.422,4.318,4.318,0,0,1,1.929.452,4.773,4.773,0,0,1,1.447,1.115,5.48,5.48,0,0,1,.935,1.688,7.58,7.58,0,0,1,.422,1.99v.211Z" transform="translate(1836.144 29.028)" fill="#54565b"/>
      <path id="Path_17532" data-name="Path 17532" d="M-1503.011-22.706a5.95,5.95,0,0,0-3.2.814,8.073,8.073,0,0,0-2.261,2.261l-.211.332-.121-.362a4.2,4.2,0,0,0-1.929-2.322,5.986,5.986,0,0,0-2.955-.754,6.5,6.5,0,0,0-1.869.241,6.2,6.2,0,0,0-1.447.633,4.947,4.947,0,0,0-1.115.965,9.966,9.966,0,0,0-.965,1.266l-.061.09h-.422v-2.653h-3.377v18.9h3.588V-14.6a6.839,6.839,0,0,1,.332-2.2,5.372,5.372,0,0,1,.9-1.628,4.025,4.025,0,0,1,1.327-1.025,3.951,3.951,0,0,1,1.568-.332,2.869,2.869,0,0,1,2.653,1.146,5.627,5.627,0,0,1,.724,3.105V-3.32h3.588V-14.415a7.067,7.067,0,0,1,.935-3.919,3.517,3.517,0,0,1,3.105-1.447,3.9,3.9,0,0,1,1.93.392,2.5,2.5,0,0,1,1.115,1.115,4.807,4.807,0,0,1,.422,1.718c0,.633.06,1.357.06,2.11V-3.38h3.527V-16.5c0-2.261-.513-3.889-1.538-4.854a6.37,6.37,0,0,0-4.311-1.357" transform="translate(1667.866 29.158)" fill="#54565b"/>
      <path id="Path_17533" data-name="Path 17533" d="M-1610.213-21.335a9.145,9.145,0,0,0-5.517-1.357,8.45,8.45,0,0,0-5.517,1.628,5.3,5.3,0,0,0-1.929,4.251v.181h3.316c0-2.05,1.417-3.166,3.98-3.166s4.07.935,4.07,2.834-.995,1.99-3.979,2.382h-.392A13.541,13.541,0,0,0-1622-12.894a4.837,4.837,0,0,0-2.02,4.432c0,3.377,2.2,5.367,5.879,5.367a7.5,7.5,0,0,0,6.09-3.015l.362-.452v.573c0,1.809,1.025,2.623,3.256,2.653V-17.326a4.79,4.79,0,0,0-1.779-4.01m-1.749,8.472v2.352c0,2.713-2.261,4.673-5.306,4.673-2.081,0-3.256-1.055-3.256-2.925,0-1.658.935-2.653,2.894-3.015.512-.09.995-.181,1.507-.241a11.608,11.608,0,0,0,3.889-1.025l.3-.181v.362Z" transform="translate(1751.008 29.144)" fill="#54565b"/>
      <path id="Path_17534" data-name="Path 17534" d="M-1932.689-15.151c-2.05-.482-3.317-1.085-3.317-2.623,0-1.357,1.266-2.171,3.377-2.171,2.472,0,3.979,1.115,4.19,2.985h3.527a5.414,5.414,0,0,0-1.99-4.161,8.732,8.732,0,0,0-5.547-1.658c-4.432,0-7.205,2.171-7.205,5.638,0,2.744,1.567,4.16,5.728,5.186l2.833.693c1.749.452,3.106.9,3.106,2.472s-1.6,2.8-4.01,2.8c-2.864,0-4.4-1.116-4.643-3.377h-3.557a5.829,5.829,0,0,0,2.02,4.522,9.038,9.038,0,0,0,5.849,1.718,9.67,9.67,0,0,0,5.939-1.658,5.546,5.546,0,0,0,2.05-4.522c0-3.377-2.08-4.522-5.909-5.457Z" transform="translate(2010.986 29.201)" fill="#54565b"/>
      <path id="Path_17535" data-name="Path 17535" d="M-1781.1-17.531l-.06.181v.151h-.392v-3.739h-3.377v18.9h3.588v-8.984a13.177,13.177,0,0,1,.09-1.538,1.087,1.087,0,0,1,.091-.543,5.779,5.779,0,0,1,5.457-5.125,5.214,5.214,0,0,1,.965.09v-2.8a4.637,4.637,0,0,0-1.568-.271,5.269,5.269,0,0,0-4.794,3.678" transform="translate(1883.308 27.902)" fill="#54565b"/>
      <path id="Path_17536" data-name="Path 17536" d="M-2329.987-13.6l-.995-.241c-3.346-.784-5.366-1.236-5.366-3.919,0-2.05,1.749-3.377,4.462-3.377,3.045,0,4.915,1.538,5.126,4.191h1.929c-.3-3.618-2.864-5.789-6.994-5.789-3.859,0-6.452,2.11-6.452,5.276s2.081,4.191,6.754,5.337h.09c3.377.784,5.186,1.266,5.186,3.708s-2.08,3.829-5.276,3.829a4.876,4.876,0,0,1-5.186-4.372h-1.9c.12,3.588,2.955,5.97,7.175,5.97s7.115-2.2,7.115-5.367c0-2.8-1.478-4.221-5.668-5.246" transform="translate(2338.61 29.158)" fill="#54565b"/>
    </g>
  </g>
</svg>
